<?xml version="1.0" encoding="UTF-8"?>
<!DOCTYPE svg PUBLIC "-//W3C//DTD SVG 1.1//EN" "http://www.w3.org/Graphics/SVG/1.1/DTD/svg11.dtd">
<!-- Creator: CorelDRAW X8 -->
<svg xmlns="http://www.w3.org/2000/svg" xml:space="preserve" width="494px" height="170px" version="1.1" style="shape-rendering:geometricPrecision; text-rendering:geometricPrecision; image-rendering:optimizeQuality; fill-rule:evenodd; clip-rule:evenodd"
viewBox="0 0 494 170"
 xmlns:xlink="http://www.w3.org/1999/xlink">
 <defs>
  <style type="text/css">
   <![CDATA[
    .fil2 {fill:#FEFEFE}
    .fil0 {fill:#3D3935}
    .fil1 {fill:#3D3935;fill-rule:nonzero}
   ]]>
  </style>
 </defs>
 <g id="Слой_x0020_1">
  <metadata id="CorelCorpID_0Corel-Layer"/>
  <g id="_899658480">
   <g>
    <path class="fil0" d="M485 144c0,13 -10,23 -23,23l-430 0c-13,0 -23,-10 -23,-23l0 -118c0,-13 10,-23 23,-23l430 0c13,0 23,10 23,23l0 118z"/>
    <path id="1" class="fil1" d="M462 169l0 -4 0 0 1 0 2 0 1 0 1 0 1 0 1 -1 1 0 1 0 1 -1 0 0 1 -1 1 0 1 -1 1 0 1 -1 0 -1 1 -1 1 0 0 -1 1 -1 0 -1 1 -1 0 -1 1 -1 0 0 0 -1 1 -1 0 -1 0 -2 0 -1 0 -1 0 -1 4 0 0 2 0 1 0 1 -1 1 0 1 0 2 -1 1 0 1 -1 1 0 1 -1 1 0 1 -1 1 -1 1 -1 1 0 1 -1 0 -1 1 -1 1 -1 1 -1 0 -1 1 -1 0 -1 1 -1 0 -1 1 -1 0 -2 0 -1 0 -1 1 -1 0 -2 0 0 0zm-430 -4l430 0 0 4 -430 0 0 0 0 -4zm-25 -21l4 0 0 0 0 1 0 1 0 1 0 2 0 1 1 1 0 1 0 0 1 1 0 1 1 1 0 1 1 1 0 1 1 0 1 1 0 1 1 1 1 0 1 1 1 0 1 1 0 0 1 1 1 0 1 0 1 1 1 0 1 0 1 0 2 0 1 0 0 4 -2 0 -1 0 -1 -1 -1 0 -2 0 -1 0 -1 -1 -1 0 -1 -1 -1 0 -1 -1 -1 0 -1 -1 -1 -1 -1 -1 -1 0 0 -1 -1 -1 -1 -1 -1 -1 0 -1 -1 -1 0 -1 -1 -1 0 -1 -1 -1 0 -2 0 -1 -1 -1 0 -1 0 -1 0 -2 0 0zm4 -118l0 118 -4 0 0 -118 0 0 4 0zm21 -25l0 4 0 0 -1 0 -2 0 -1 0 -1 0 -1 0 -1 1 -1 0 -1 0 -1 1 0 0 -1 1 -1 0 -1 1 -1 0 -1 1 0 1 -1 1 -1 0 0 1 -1 1 0 1 -1 1 0 1 -1 1 0 0 0 1 -1 1 0 1 0 2 0 1 0 1 0 1 -4 0 0 -2 0 -1 0 -1 1 -1 0 -1 0 -2 1 -1 0 -1 1 -1 0 -1 1 -1 0 -1 1 -1 1 -1 1 -1 0 -1 1 0 1 -1 1 -1 1 -1 1 0 1 -1 1 0 1 -1 1 0 1 -1 1 0 2 0 1 0 1 -1 1 0 2 0 0 0zm430 4l-430 0 0 -4 430 0 0 0 0 4zm25 21l-4 0 0 0 0 -1 0 -1 0 -1 0 -2 0 -1 -1 -1 0 -1 0 0 -1 -1 0 -1 -1 -1 0 -1 -1 -1 0 -1 -1 0 -1 -1 0 -1 -1 -1 -1 0 -1 -1 -1 0 -1 -1 0 0 -1 -1 -1 0 -1 0 -1 -1 -1 0 -1 0 -1 0 -2 0 -1 0 0 -4 2 0 1 0 1 1 1 0 2 0 1 0 1 1 1 0 1 1 1 0 1 1 1 0 1 1 1 1 1 1 1 0 0 1 1 1 1 1 1 1 0 1 1 1 0 1 1 1 0 1 1 1 0 2 0 1 1 1 0 1 0 1 0 2 0 0zm-4 118l0 -118 4 0 0 118 0 0 -4 0z"/>
   </g>
   <path class="fil2" d="M176 3l-144 0c-13,0 -23,10 -23,23l0 118c0,13 10,23 23,23l144 0 0 -164z"/>
   <path class="fil0" d="M88 54l-7 10c-4,5 -3,13 2,17l13 9c3,2 3,4 2,5l2 2 6 -10c5,-5 4,-13 -2,-17l-13 -10c-2,-1 -2,-3 -1,-5l-2 -1z"/>
   <path class="fil0" d="M99 11l-11 15c-5,7 -3,19 4,25l18 13c4,3 4,10 2,13l1 1 13 -17c5,-8 5,-20 -4,-26l-19 -14c-3,-2 -4,-6 -2,-9l-2 -1z"/>
   <path class="fil0" d="M70 107l15 0 3 8c8,0 15,0 23,0l3 -8 15 0 -2 -7c-18,0 -37,0 -55,0l-2 7z"/>
   <path class="fil0" d="M146 152c0,0 0,0 0,0 0,0 0,0 0,-1 0,0 -1,0 -1,0 0,0 0,0 0,0 0,0 -1,0 -1,0 0,0 0,0 0,0 0,0 0,0 0,-1 0,0 0,0 0,0 0,0 0,0 0,0 0,0 0,0 0,0 0,0 0,0 0,0 0,0 0,0 1,0 0,0 0,0 0,0 0,0 0,0 1,0l0 0c0,0 -1,0 -1,-1 0,0 0,0 0,0 -1,0 -1,0 -1,0 0,0 0,1 0,1 0,0 0,0 0,0 0,0 -1,0 -1,0 0,0 1,1 1,1 0,0 0,0 0,0 0,0 0,0 0,0 0,0 0,0 1,0 0,0 0,0 0,1 0,0 0,0 0,0 0,0 0,0 0,0 0,0 0,0 0,0 0,0 0,0 0,1 0,0 0,0 0,0 -1,0 -1,0 -1,0 0,0 0,-1 0,-1l-1 1c1,0 1,0 1,0 0,0 0,0 1,0 0,0 0,0 0,0 0,0 0,0 1,0 0,0 0,0 0,-1 0,0 0,0 0,0l0 0z"/>
   <path class="fil0" d="M150 153l0 -4 -1 0 -1 3c0,0 0,0 0,0 0,0 0,0 0,0 0,0 0,0 0,0 0,0 0,0 0,0 0,0 0,0 0,0 0,0 0,0 0,0 0,0 0,0 0,0 0,0 0,0 0,0l-1 -3 0 0 0 4 0 0 0 -2 0 -1c0,0 0,0 0,0 0,0 0,0 0,0 0,1 0,1 0,1 0,0 0,0 0,0l1 2 1 -2c0,0 0,0 0,0 0,0 0,0 0,-1 0,0 0,0 0,0 0,0 0,0 0,0l0 1 0 2 1 0z"/>
   <path class="fil0" d="M71 147l-8 0 0 -7 8 0c7,0 6,7 0,7zm-8 -20l7 0c5,0 6,7 1,7l-8 0 0 -7zm20 16c-1,-4 -2,-5 -6,-7 3,-1 4,-3 4,-6 0,-7 -5,-9 -10,-9l-15 0 0 32 15 0c6,0 13,-3 12,-10z"/>
   <path class="fil0" d="M101 147l-8 0 0 -7 8 0c7,0 7,7 0,7zm-8 -20l8 0c4,0 5,7 0,7l-8 0 0 -7zm20 16c-1,-4 -2,-5 -6,-7 3,-1 4,-3 4,-6 0,-7 -5,-9 -10,-9l-15 0 0 32 15 0c6,0 13,-3 12,-10z"/>
   <path class="fil0" d="M131 147l-8 0 0 -7 8 0c7,0 7,7 0,7zm-8 -20l8 0c4,0 5,7 0,7l-8 0 0 -7zm20 16c-1,-4 -2,-5 -6,-7 3,-1 4,-3 4,-6 0,-7 -5,-9 -10,-9l-15 0 0 32 15 0c6,0 13,-3 12,-10z"/>
   <path class="fil2" d="M250 66c-1,-2 -4,-4 -7,-5 -1,0 -2,0 -4,0 -2,0 -4,0 -6,1 -1,1 -3,2 -4,3 -1,1 -2,3 -3,5 0,2 -1,4 -1,6 0,2 1,4 1,6 1,2 2,4 3,5 1,1 3,2 4,3 2,1 4,1 6,1 4,0 10,-2 12,-6l-4 -3c-2,2 -6,3 -8,3 -1,0 -2,0 -3,0 -1,-1 -2,-1 -2,-2 -1,-1 -2,-2 -2,-3 0,-1 0,-3 0,-4 0,-1 0,-3 0,-4 0,-1 1,-2 2,-3 0,0 1,-1 2,-2 1,0 2,0 3,0 2,0 6,1 7,3l4 -4z"/>
   <polygon class="fil2" points="335,91 335,85 319,85 319,78 332,78 332,72 319,72 319,67 335,67 335,61 313,61 313,91 "/>
   <path class="fil2" d="M358 80c0,1 -1,2 -2,3 0,0 -1,1 -3,1 -1,1 -2,1 -4,1l-3 0 0 -18 3 0c4,0 6,1 7,2 2,2 3,4 3,7 0,1 -1,3 -1,4zm6 -11c-1,-2 -2,-3 -3,-4 -2,-2 -3,-2 -5,-3 -2,0 -4,-1 -6,-1l-10 0 0 30 9 0c2,0 4,-1 6,-1 2,-1 4,-2 5,-3 2,-1 3,-2 4,-4 1,-2 1,-4 1,-7 0,-3 0,-5 -1,-7z"/>
   <polygon class="fil2" points="377,91 377,61 371,61 371,91 "/>
   <polygon class="fil2" points="406,67 406,61 382,61 382,67 391,67 391,91 397,91 397,67 "/>
   <path class="fil2" d="M455 80c0,1 -1,2 -2,3 0,0 -1,1 -3,1 -1,1 -2,1 -4,1l-3 0 0 -18 3 0c4,0 6,1 7,2 2,2 3,4 3,7 0,1 -1,3 -1,4zm6 -11c-1,-2 -2,-3 -3,-4 -2,-2 -3,-2 -5,-3 -2,0 -4,-1 -6,-1l-10 0 0 30 9 0c2,0 4,-1 6,-1 2,-1 4,-2 5,-3 2,-1 3,-2 4,-4 1,-2 1,-4 1,-7 0,-3 0,-5 -1,-7z"/>
   <polygon class="fil2" points="432,91 432,85 416,85 416,78 429,78 429,72 416,72 416,67 432,67 432,61 410,61 410,91 "/>
   <polygon class="fil2" points="380,129 380,123 364,123 364,116 377,116 377,110 364,110 364,105 380,105 380,99 358,99 358,129 "/>
   <path class="fil2" d="M279 66c-2,-2 -5,-4 -7,-5 -2,0 -3,0 -4,0 -2,0 -4,0 -6,1 -2,1 -3,2 -4,3 -1,1 -2,3 -3,5 -1,2 -1,4 -1,6 0,2 0,4 1,6 1,2 1,4 3,5 1,1 2,2 4,3 2,1 3,1 5,1 4,0 11,-2 13,-6l-5 -3c-1,2 -5,3 -7,3 -2,0 -3,0 -3,0 -1,-1 -2,-1 -3,-2 0,-1 -1,-2 -1,-3 -1,-1 -1,-3 -1,-4 0,-1 0,-3 1,-4 0,-1 1,-2 1,-3 1,0 2,-1 2,-2 1,0 2,0 4,0 2,0 5,1 7,3l4 -4z"/>
   <path class="fil2" d="M246 122c0,1 -1,1 -3,1l-8 0 0 -7 8 0c3,0 4,1 4,3 0,1 0,2 -1,3zm-11 -17l8 0c1,0 2,0 3,0 0,1 1,2 1,3 0,0 -1,1 -1,2 -1,0 -2,0 -3,0l-8 0 0 -5zm18 10c-1,-1 -2,-2 -4,-2 1,-1 2,-2 3,-3 0,-1 1,-2 1,-3 0,-2 -1,-4 -3,-6 -2,-1 -4,-2 -7,-2l-14 0 0 30 14 0c2,0 3,0 4,-1 2,0 3,-1 4,-2 1,-1 1,-1 2,-3 0,-1 1,-2 1,-4 0,-1 -1,-3 -1,-4z"/>
   <path class="fil2" d="M282 116l0 -17 -6 0 0 17c0,2 0,4 -2,5 -1,2 -2,2 -4,2 -2,0 -3,0 -5,-2 -1,-1 -1,-3 -1,-5l0 -17 -6 0 0 17c0,2 0,4 1,6 0,1 1,3 2,4 1,1 2,2 4,2 1,1 3,1 5,1 4,0 7,-1 9,-3 2,-3 3,-6 3,-10l0 0z"/>
   <path class="fil2" d="M310 120c0,-2 0,-3 -1,-4 -1,-1 -1,-2 -2,-3 -1,0 -2,-1 -4,-1 -1,-1 -2,-1 -3,-1 -1,-1 -2,-1 -3,-1 -1,0 -2,0 -2,-1 0,0 -1,0 -1,-1 0,0 0,0 0,-1 0,0 0,0 0,-1 0,0 0,0 1,-1 0,0 1,0 1,0 1,0 1,0 2,0 1,0 3,0 4,0 1,1 2,2 3,3l4 -5c-1,-1 -3,-2 -5,-3 -1,-1 -3,-1 -6,-1 -1,0 -3,0 -4,0 -1,1 -2,1 -3,2 -1,1 -2,2 -3,3 0,1 0,2 0,3 0,2 0,3 0,4 1,1 1,2 2,3 1,0 2,1 3,1 1,1 3,1 4,1 1,1 3,1 3,1 1,0 2,1 2,1 1,0 1,1 1,1 1,0 1,1 1,1 0,1 -1,2 -2,3 0,0 -2,0 -4,0 -1,0 -2,0 -4,0 -1,-1 -2,-2 -3,-3l-5 4c2,1 3,3 5,4 2,1 5,1 7,1 2,0 4,0 5,-1 2,0 3,-1 4,-1 1,-1 2,-2 2,-3 1,-2 1,-3 1,-4l0 0z"/>
   <polygon class="fil2" points="321,129 321,99 315,99 315,129 "/>
   <path class="fil2" d="M352 129l0 -30 -6 0 0 13c0,0 0,1 0,1 0,1 0,2 0,2 0,1 0,1 0,2 0,0 0,1 0,1 0,0 -1,-1 -1,-1 -1,-1 -1,-2 -1,-2l-11 -16 -6 0 0 30 6 0 0 -13c0,-1 0,-1 0,-2 0,0 0,-1 0,-2 0,0 0,-1 0,-1 0,-1 0,-1 0,-2 0,1 1,1 1,2 0,1 1,1 1,2l11 16 6 0z"/>
   <path class="fil2" d="M405 120c0,-2 0,-3 -1,-4 0,-1 -1,-2 -2,-3 -1,0 -2,-1 -3,-1 -2,-1 -3,-1 -4,-1 -1,-1 -2,-1 -3,-1 -1,0 -1,0 -2,-1 0,0 -1,0 -1,-1 0,0 0,0 0,-1 0,0 0,0 0,-1 0,0 0,0 1,-1 0,0 1,0 1,0 1,0 1,0 2,0 2,0 3,0 4,0 1,1 2,2 3,3l4 -5c-1,-1 -3,-2 -4,-3 -2,-1 -4,-1 -7,-1 -1,0 -2,0 -4,0 -1,1 -2,1 -3,2 -1,1 -2,2 -3,3 0,1 0,2 0,3 0,2 0,3 0,4 1,1 1,2 2,3 1,0 2,1 3,1 1,1 3,1 4,1 1,1 3,1 4,1 0,0 1,1 2,1 0,0 0,1 1,1 0,0 0,1 0,1 0,1 -1,2 -1,3 -1,0 -3,0 -4,0 -2,0 -3,0 -5,0 -1,-1 -2,-2 -3,-3l-5 4c2,1 3,3 5,4 2,1 5,1 7,1 2,0 4,0 6,-1 1,0 2,-1 3,-1 1,-1 2,-2 2,-3 1,-2 1,-3 1,-4l0 0z"/>
   <path class="fil2" d="M431 120c0,-2 0,-3 -1,-4 -1,-1 -1,-2 -2,-3 -1,0 -2,-1 -3,-1 -2,-1 -3,-1 -4,-1 -1,-1 -2,-1 -3,-1 -1,0 -1,0 -2,-1 0,0 -1,0 -1,-1 0,0 0,0 0,-1 0,0 0,0 0,-1 0,0 0,0 1,-1 0,0 1,0 1,0 1,0 1,0 2,0 2,0 3,0 4,0 1,1 2,2 3,3l4 -5c-1,-1 -3,-2 -4,-3 -2,-1 -4,-1 -7,-1 -1,0 -3,0 -4,0 -1,1 -2,1 -3,2 -1,1 -2,2 -3,3 0,1 0,2 0,3 0,2 0,3 0,4 1,1 1,2 2,3 1,0 2,1 3,1 1,1 3,1 4,1 1,1 3,1 3,1 1,0 2,1 3,1 0,0 0,1 0,1 1,0 1,1 1,1 0,1 -1,2 -2,3 0,0 -2,0 -4,0 -1,0 -2,0 -4,0 -1,-1 -2,-2 -3,-3l-5 4c2,1 3,3 5,4 2,1 5,1 7,1 2,0 4,0 5,-1 2,0 3,-1 4,-1 1,-1 2,-2 2,-3 1,-2 1,-3 1,-4l0 0z"/>
   <path class="fil2" d="M206 79l2 -6c0,-1 0,-1 1,-2 0,-1 0,-2 0,-2 0,0 1,1 1,2 0,1 1,1 1,2l2 6 -7 0zm6 -18l-6 0 -11 30 6 0 3 -7 11 0 2 7 7 0 -12 -30z"/>
   <path class="fil2" d="M298 75l-8 0 0 -8 8 0c2,0 3,0 3,1 1,0 2,1 2,3 0,2 -2,4 -5,4zm4 5c2,-1 5,-2 6,-4 1,-1 1,-3 1,-5 0,-2 0,-3 -1,-4 0,-2 -1,-3 -2,-3 -1,-1 -2,-2 -4,-2 -1,0 -2,-1 -4,-1l-14 0 0 30 6 0 0 -11 6 0 6 11 7 0 -7 -11z"/>
  </g>
 </g>
</svg>
