<?xml version="1.0" encoding="UTF-8"?>
<!DOCTYPE svg PUBLIC "-//W3C//DTD SVG 1.1//EN" "http://www.w3.org/Graphics/SVG/1.1/DTD/svg11.dtd">
<!-- Creator: CorelDRAW X8 -->
<svg xmlns="http://www.w3.org/2000/svg" xml:space="preserve" width="200px" height="152px" version="1.1" style="shape-rendering:geometricPrecision; text-rendering:geometricPrecision; image-rendering:optimizeQuality; fill-rule:evenodd; clip-rule:evenodd"
viewBox="0 0 200 152"
 xmlns:xlink="http://www.w3.org/1999/xlink">
 <defs>
  <style type="text/css">
   <![CDATA[
    .fil0 {fill:#3D3935;fill-rule:nonzero}
   ]]>
  </style>
 </defs>
 <g id="Слой_x0020_1">
  <metadata id="CorelCorpID_0Corel-Layer"/>
  <path class="fil0" d="M200 9c0,-5 -4,-9 -9,-9l-182 0c-5,0 -9,4 -9,9l0 134c0,5 4,9 9,9l182 0c5,0 9,-4 9,-9l0 -134zm-17 8l0 0 0 73 -15 -12c-3,-3 -8,-3 -11,0l-24 19 -54 -47c-3,-3 -8,-3 -11,0l-51 41 0 -74 166 0zm-166 118l0 0 0 -22 56 -45 55 47c3,3 8,3 11,1l23 -20 21 17 0 22 -166 0zm96 -88l0 0c0,-9 7,-16 16,-16 9,0 17,7 17,16 0,9 -8,16 -17,16 -9,0 -16,-7 -16,-16z"/>
 </g>
</svg>
