<?xml version="1.0" encoding="UTF-8"?>
<!DOCTYPE svg PUBLIC "-//W3C//DTD SVG 1.1//EN" "http://www.w3.org/Graphics/SVG/1.1/DTD/svg11.dtd">
<!-- Creator: CorelDRAW X8 -->
<svg xmlns="http://www.w3.org/2000/svg" xml:space="preserve" width="270px" height="162px" version="1.1" style="shape-rendering:geometricPrecision; text-rendering:geometricPrecision; image-rendering:optimizeQuality; fill-rule:evenodd; clip-rule:evenodd"
viewBox="0 0 270 162"
 xmlns:xlink="http://www.w3.org/1999/xlink">
 <defs>
  <style type="text/css">
   <![CDATA[
    .fil4 {fill:#FEFEFE}
    .fil1 {fill:#F8B145}
    .fil3 {fill:#264470}
    .fil2 {fill:#3D3935}
    .fil0 {fill:#B3B3B3}
   ]]>
  </style>
 </defs>
 <g id="Слой_x0020_1">
  <metadata id="CorelCorpID_0Corel-Layer"/>
  <g id="_986206192">
   <path class="fil0" d="M135 141c14,13 33,21 54,21 45,0 81,-36 81,-81 0,-45 -36,-81 -81,-81 -21,0 -40,8 -54,21 -16,15 -27,36 -27,60 0,24 11,45 27,60z"/>
   <path class="fil1" d="M259 126c0,-1 1,-3 3,-3 1,0 2,2 2,3 0,1 -1,3 -2,3 -2,0 -3,-2 -3,-3zm3 2c1,0 2,-1 2,-2 0,-1 -1,-2 -2,-2 -1,0 -2,1 -2,2 0,1 1,2 2,2zm0 -1l-1 0 0 -2 1 0c0,0 0,0 1,0 0,0 0,0 0,1 0,0 0,0 -1,0l1 1 -1 0 0 -1 0 0 0 1zm0 -1l0 0c0,0 0,0 0,0 0,0 0,0 0,0 0,-1 0,-1 0,-1 0,0 0,0 0,0l0 0 0 1z"/>
   <path class="fil2" d="M161 72c0,-2 -1,-5 -1,-8l-50 0c1,-3 2,-6 3,-9l44 0c-1,-3 -2,-5 -3,-8l-38 0c1,-3 3,-6 5,-9l28 0c-2,-3 -4,-6 -6,-8l-16 0c2,-3 5,-6 8,-9 -14,-13 -33,-21 -54,-21 -45,0 -81,36 -81,81 0,45 36,81 81,81 21,0 40,-8 54,-21 3,-3 6,-6 8,-9l-16 0c-2,-2 -4,-5 -6,-8l28 0c2,-3 4,-6 5,-9l-38 0c-1,-3 -2,-5 -3,-8l44 0c1,-3 2,-6 3,-9 0,-3 1,-6 1,-8 0,-3 1,-6 1,-9 0,-3 -1,-6 -1,-9z"/>
   <path class="fil3" d="M132 80c0,-3 -2,-4 -4,-4 -2,0 -4,1 -5,3 1,-1 1,-1 2,-1 3,0 4,1 4,4l3 0c0,-1 0,-2 0,-2z"/>
   <path class="fil3" d="M121 88c0,1 0,1 0,1 0,1 0,1 0,2l16 0c0,-1 0,-2 0,-3l-16 0z"/>
   <path class="fil3" d="M128 103c-10,0 -15,-5 -15,-15 0,-5 1,-9 3,-13 -3,4 -5,9 -5,15 0,10 5,15 15,15 3,0 6,0 9,-1l0 -2c-2,1 -5,1 -7,1z"/>
   <path class="fil3" d="M179 69c-3,0 -6,2 -8,5 2,-2 4,-2 6,-2 2,0 4,0 8,2l0 -3c-2,-1 -4,-2 -6,-2z"/>
   <path class="fil3" d="M174 103c-9,0 -15,-7 -15,-18 0,-9 3,-17 9,-21 -3,1 -4,3 -6,5l-1 0 -1 1c-1,2 -2,5 -3,8 0,0 0,0 0,0 -2,0 -4,1 -5,5 1,-1 2,-2 3,-2 1,0 1,0 2,0 0,2 -1,5 -1,7 0,11 7,18 16,18 2,0 5,-1 8,-2l0 -2c-2,1 -4,1 -6,1z"/>
   <path class="fil3" d="M140 102l5 -31 -2 0 -6 34 9 0c0,-1 1,-2 1,-3l-7 0z"/>
   <path class="fil3" d="M251 73l2 -9 -2 0 -1 7c0,0 1,1 1,2z"/>
   <path class="fil3" d="M249 83c0,-4 -1,-6 -4,-6 -2,0 -4,1 -5,3 1,-1 2,-1 3,-1 3,0 4,2 4,7 0,3 0,5 -2,7 3,-1 4,-5 4,-10z"/>
   <path class="fil3" d="M212 102l5 -31 -2 0 -5 34 8 0c1,-1 1,-2 1,-3l-7 0z"/>
   <path class="fil3" d="M247 102l1 -3c-3,2 -5,4 -9,4 -6,0 -10,-6 -10,-14 0,-7 2,-12 5,-16 -2,1 -3,3 -5,5 0,0 0,0 0,0 -2,0 -4,1 -5,6 1,-2 3,-2 4,-3 -1,3 -2,7 -2,10 0,9 5,14 11,14 3,0 6,-1 8,-4l0 4 8 0 1 -3 -7 0z"/>
   <polygon class="fil3" points="8,102 14,64 12,64 5,105 14,105 14,102 "/>
   <polygon class="fil3" points="28,87 35,64 33,64 27,82 "/>
   <polygon class="fil3" points="34,102 39,71 36,80 32,105 41,105 41,102 "/>
   <polygon class="fil3" points="22,102 21,71 19,83 20,105 26,105 27,102 "/>
   <path class="fil3" d="M51 79c2,0 4,-1 7,-1 4,0 5,1 6,3 0,0 1,0 1,0 1,-1 1,-2 1,-2 0,-2 -2,-3 -6,-3 -2,0 -5,0 -7,1l-1 0 -1 0 1 -5c-1,0 -1,0 -2,0l-1 8 0 0 2 -1z"/>
   <path class="fil3" d="M64 87c0,0 -1,0 -1,0 -5,0 -7,1 -8,4 1,-1 3,-1 5,-1 0,0 1,0 2,0 0,2 -1,4 -1,5 2,-1 3,-4 3,-8z"/>
   <path class="fil3" d="M64 102l0 -3c-2,2 -5,4 -9,4 -5,0 -8,-4 -8,-9 0,-3 0,-6 1,-7 -2,1 -3,3 -3,6l-1 2c0,0 0,1 0,1 0,6 4,9 8,9 4,0 7,-1 9,-4l0 4 8 0 0 -1 0 -1 0 -1 -5 0z"/>
   <path class="fil3" d="M89 76c-2,0 -4,1 -4,3 0,0 0,0 0,0 1,0 1,0 2,0 2,0 4,0 6,0l1 -3c-2,0 -3,0 -5,0z"/>
   <path class="fil3" d="M82 103c-1,0 -3,0 -5,-1 -1,0 -2,0 -2,0l-2 0 0 0 0 -5c0,0 -1,0 -2,0l-1 7 1 0 2 1c0,0 1,0 2,0 2,0 4,0 5,0 6,0 10,-1 12,-5 -2,2 -6,3 -10,3z"/>
   <path class="fil3" d="M83 89c-5,-3 -7,-5 -7,-10 0,-2 1,-4 2,-6 -2,2 -3,4 -4,6 0,1 0,2 0,3 0,0 0,0 0,0 0,4 2,7 7,9 3,2 4,2 4,4 0,0 0,0 0,0 1,0 2,-1 2,-3 0,-1 -1,-2 -4,-3z"/>
   <polygon class="fil3" points="108,77 108,80 111,80 111,77 "/>
   <path class="fil3" d="M104 103c-5,0 -7,-3 -7,-7 0,-1 0,-2 0,-3l0 -4 1 -2 3 -21 -2 0 -3 23 -1 1c0,1 0,1 0,2 0,2 0,4 -1,5 0,0 0,1 0,1 0,5 3,7 7,7 2,0 4,0 7,-1l0 -2c-2,1 -3,1 -4,1z"/>
   <path class="fil3" d="M189 79c2,0 5,-1 7,-1 4,0 5,1 6,3 0,0 1,0 2,0 0,-1 0,-2 0,-2 0,-2 -2,-3 -6,-3 -2,0 -5,0 -7,1l-1 0 -1 0 1 -5c-1,0 -1,0 -2,0l-1 8 1 0 1 -1z"/>
   <path class="fil3" d="M203 87c-1,0 -2,0 -2,0 -4,0 -7,1 -8,4 2,-1 3,-1 5,-1 1,0 1,0 2,0 0,2 -1,4 -1,5 2,-1 3,-4 4,-8z"/>
   <path class="fil3" d="M202 102l0 -3c-2,2 -5,4 -9,4 -5,0 -8,-4 -8,-9 0,-3 0,-6 2,-7 -2,1 -4,3 -4,6 0,0 0,0 1,-1l-1 7c1,4 4,6 7,6 4,0 7,-1 9,-4l0 4 8 0 0 -1 0 -1 0 -1 -5 0z"/>
   <path class="fil4" d="M259 100c0,-2 1,-3 3,-3 1,0 2,1 2,3 0,1 -1,2 -2,2 -2,0 -3,-1 -3,-2zm3 2c1,0 2,-1 2,-2 0,-1 -1,-2 -2,-2 -1,0 -2,1 -2,2 0,1 1,2 2,2zm0 -1l-1 0 0 -2 1 0c0,0 0,0 1,0 0,0 0,0 0,0 0,1 0,1 -1,1l1 1 -1 0 0 -1 0 0 0 1zm0 -1l0 0c0,0 0,0 0,0 0,-1 0,-1 0,-1 0,0 0,0 0,0 0,0 0,0 0,0l0 0 0 1z"/>
   <path class="fil4" d="M110 102c-3,1 -4,1 -6,1 -5,0 -7,-3 -7,-7 0,-1 0,-2 0,-3l0 -4 1 -2 4 -23 8 0 -1 5 5 0 -1 8 -5 0 -2 14c0,1 0,1 0,1 0,2 1,3 3,3 1,0 1,0 2,-1l-1 8z"/>
   <path class="fil4" d="M76 79c0,5 2,7 7,10 3,1 4,2 4,3 0,2 -2,3 -5,3 -3,0 -5,0 -8,-1l-1 8 0 0 2 0c0,0 1,0 2,0 2,1 4,1 5,1 9,0 13,-4 13,-11 0,-5 -1,-8 -6,-10 -3,-1 -4,-2 -4,-3 0,-2 2,-3 4,-3 2,0 4,0 7,1l1 -8c-2,-1 -6,-1 -8,-1 -10,0 -13,5 -13,11z"/>
   <path class="fil4" d="M188 62l-1 9c-3,-1 -5,-2 -8,-2 -6,0 -11,7 -11,15 0,7 3,10 8,10 2,0 5,0 8,-2l-2 10c-3,1 -5,1 -8,1 -9,0 -15,-7 -15,-18 0,-14 8,-25 20,-25 1,0 3,0 4,1l3 1c1,0 2,0 2,0z"/>
   <path class="fil4" d="M255 102l-8 0 1 -3c-3,2 -5,4 -9,4 -6,0 -10,-6 -10,-14 0,-11 6,-21 14,-21 3,0 6,2 8,5l2 -12 9 0 -7 41zm-13 -8c5,0 7,-4 7,-11 0,-4 -1,-6 -4,-6 -4,0 -7,4 -7,11 0,4 1,6 4,6z"/>
   <path class="fil4" d="M137 101c-3,1 -6,2 -9,2 -10,0 -15,-5 -15,-15 0,-12 6,-20 15,-20 7,0 12,5 12,12 0,3 0,5 -1,8l-18 0c0,1 0,1 0,1 0,4 3,6 8,6 3,0 6,0 9,-2l-1 8zm-5 -19c0,-1 0,-2 0,-2 0,-3 -2,-4 -4,-4 -3,0 -5,2 -6,6l10 0z"/>
   <path class="fil4" d="M160 69c0,0 0,-1 -1,-1 -2,0 -4,2 -7,6l1 -5 -8 0 -5 33 9 0c3,-20 3,-24 8,-24 0,0 0,0 0,0 1,-4 2,-7 4,-9l-1 0z"/>
   <path class="fil4" d="M232 69c0,0 0,-1 0,-1 -3,0 -5,2 -8,6l1 -5 -8 0 -5 33 9 0c3,-20 4,-24 8,-24 0,0 0,0 0,0 1,-4 2,-7 4,-9l-1 0z"/>
   <polygon class="fil4" points="43,102 34,102 39,71 28,102 22,102 21,71 16,102 8,102 15,61 27,61 28,87 36,61 50,61 "/>
   <path class="fil4" d="M64 87c0,0 -1,0 -1,0 -5,0 -8,2 -8,5 0,2 1,4 3,4 4,0 6,-4 6,-9zm7 15l-7 0 0 -3c-2,2 -5,4 -9,4 -5,0 -8,-4 -8,-9 0,-8 5,-13 15,-13 1,0 2,0 3,0 1,-1 1,-2 1,-2 0,-2 -2,-3 -6,-3 -2,0 -5,0 -7,1l-1 0 -1 0 1 -7c5,-1 7,-2 11,-2 7,0 11,3 11,10 0,2 0,3 -1,6l-1 12 -1 2 0 2 0 1 0 1z"/>
   <path class="fil4" d="M196 96c-2,0 -3,-2 -3,-4 0,-3 3,-5 8,-5 0,0 1,0 2,0 -1,5 -3,9 -7,9zm13 5l0 -1 0 -2 1 -2 2 -12c0,-3 0,-4 0,-6 0,-7 -4,-10 -11,-10 -3,0 -6,1 -11,2l-1 7 1 0 1 0c2,-1 5,-1 7,-1 4,0 6,1 6,3 0,0 0,1 0,2 -2,0 -3,0 -4,0 -10,0 -15,5 -15,13 0,5 3,9 8,9 4,0 7,-2 9,-4l0 3 7 0 0 -1z"/>
  </g>
 </g>
</svg>
