<?xml version="1.0" encoding="UTF-8"?>
<!DOCTYPE svg PUBLIC "-//W3C//DTD SVG 1.1//EN" "http://www.w3.org/Graphics/SVG/1.1/DTD/svg11.dtd">
<!-- Creator: CorelDRAW X8 -->
<svg xmlns="http://www.w3.org/2000/svg" xml:space="preserve" width="482px" height="260px" version="1.1" style="shape-rendering:geometricPrecision; text-rendering:geometricPrecision; image-rendering:optimizeQuality; fill-rule:evenodd; clip-rule:evenodd"
viewBox="0 0 482 260"
 xmlns:xlink="http://www.w3.org/1999/xlink">
 <defs>
  <style type="text/css">
   <![CDATA[
    .fil0 {fill:#FEFEFE}
    .fil3 {fill:#B2B3B3}
    .fil4 {fill:#2B2A29}
    .fil2 {fill:#3D3935}
    .fil1 {fill:gray}
   ]]>
  </style>
 </defs>
 <g id="Слой_x0020_1">
  <metadata id="CorelCorpID_0Corel-Layer"/>
  <g id="_626788544">
   <path class="fil0" d="M88 40c-41,0 -75,34 -75,75 0,41 34,75 75,75l312 0c42,0 75,-34 75,-75 0,-41 -33,-75 -75,-75l-312 0z"/>
   <path class="fil1" d="M88 40c-41,0 -75,34 -75,75 0,41 34,75 75,75l312 0c42,0 75,-34 75,-75 0,-41 -33,-75 -75,-75l-312 0zm312 156l-312 0c-45,0 -81,-36 -81,-81 0,-45 36,-81 81,-81l312 0c45,0 82,36 82,81 0,45 -37,81 -82,81z"/>
   <path class="fil2" d="M363 103c-6,0 -11,-5 -11,-12 0,-6 5,-11 11,-11 6,0 11,5 11,11 0,7 -5,12 -11,12zm0 -34c-12,0 -22,10 -22,22 0,12 10,22 22,22 12,0 22,-10 22,-22 0,-12 -10,-22 -22,-22z"/>
   <path class="fil2" d="M262 103c-6,0 -11,-5 -11,-12 0,-6 5,-11 11,-11 7,0 12,5 12,11 0,7 -5,12 -12,12zm0 -34c-12,0 -22,10 -22,22 0,12 10,22 22,22 13,0 22,-10 22,-22 0,-12 -9,-22 -22,-22z"/>
   <path class="fil2" d="M340 103c-2,1 -4,1 -5,1 -3,0 -4,-1 -4,-5l0 -20 9 0 0 -9 -9 0 0 -12 -10 0 -2 12 -7 0 0 0 -1 0c-6,0 -10,4 -13,9l-3 -9 -8 0 0 42 13 0 0 -18c0,-9 5,-15 12,-15l6 0 0 21c0,10 5,13 14,13 4,0 7,-1 9,-1l-1 -9z"/>
   <polygon class="fil2" points="400,84 400,112 388,112 388,70 395,70 398,77 "/>
   <path class="fil2" d="M398 77c3,-4 8,-8 14,-8 10,0 14,8 14,16l0 27 -12 0 0 -27c0,-4 -3,-5 -6,-5 -4,0 -6,2 -8,4l-2 -7z"/>
   <polygon class="fil2" points="192,55 206,55 225,91 225,55 236,55 236,112 224,112 204,73 204,112 192,112 "/>
   <polygon class="fil3" points="463,34 463,36 460,36 460,46 458,46 458,36 455,36 455,34 "/>
   <polygon class="fil1" points="465,46 465,34 468,34 470,42 472,34 475,34 475,46 473,46 473,36 473,36 471,46 469,46 467,36 466,36 466,46 "/>
   <path class="fil1" d="M189 163l3 -4c2,2 5,3 10,3 4,0 6,-2 6,-5 0,-4 -3,-5 -8,-7 -5,-1 -10,-4 -10,-10 0,-7 5,-10 12,-10 5,0 8,1 10,2l-2 5c-2,-1 -5,-2 -8,-2 -4,0 -6,2 -6,4 0,4 3,5 8,6 5,2 10,4 10,12 0,6 -4,10 -12,10 -6,0 -11,-2 -13,-4z"/>
   <polygon class="fil1" points="225,130 247,130 247,135 231,135 231,145 244,145 244,150 231,150 231,162 248,162 248,167 225,167 "/>
   <path class="fil1" d="M257 149c0,-11 5,-19 15,-19 4,0 8,1 11,4l-4 4c-2,-2 -4,-3 -7,-3 -6,0 -9,5 -9,14 0,9 3,13 9,13 3,0 6,-2 8,-4l3 4c-2,3 -6,5 -11,5 -10,0 -15,-8 -15,-18z"/>
   <path class="fil1" d="M293 153l0 -23 7 0 0 24c0,5 1,8 6,8 5,0 7,-3 7,-8l0 -24 6 0 0 23c0,9 -4,14 -13,14 -9,0 -13,-5 -13,-14z"/>
   <path class="fil1" d="M343 147c5,0 7,-2 7,-6 0,-4 -3,-6 -7,-6l-6 0 0 12 6 0zm14 20l-7 0 -7 -16 -6 0 0 16 -6 0 0 -37 12 0c8,0 13,3 13,11 0,6 -3,8 -7,10l8 16z"/>
   <polygon class="fil1" points="367,130 389,130 389,135 374,135 374,145 386,145 386,150 374,150 374,162 390,162 390,167 367,167 "/>
   <path class="fil1" d="M409 162c9,0 12,-4 12,-13 0,-9 -3,-14 -11,-14l-3 0 0 27 2 0zm-8 -32l9 0c11,0 17,7 17,19 0,11 -6,18 -17,18l-9 0 0 -37z"/>
   <path class="fil1" d="M88 55c-16,0 -31,6 -42,17 -12,12 -18,27 -18,43 0,16 6,31 18,42 11,12 26,18 42,18 16,0 31,-6 42,-18 12,-11 18,-26 18,-42 0,-16 -6,-31 -18,-43 -11,-11 -26,-17 -42,-17zm0 148c-48,0 -88,-40 -88,-88 0,-49 40,-88 88,-88 48,0 88,39 88,88 0,48 -40,88 -88,88z"/>
   <polygon class="fil1" points="190,14 183,14 183,20 190,20 "/>
   <polygon class="fil1" points="190,0 183,0 183,7 190,7 "/>
   <polygon class="fil1" points="171,20 164,20 164,27 171,27 "/>
   <polygon class="fil4" points="158,34 152,34 152,40 158,40 "/>
   <polygon class="fil1" points="178,27 171,27 171,34 178,34 "/>
   <polygon class="fil1" points="145,34 152,34 152,27 145,27 "/>
   <polygon class="fil4" points="171,34 164,34 164,40 171,40 "/>
   <polygon class="fil1" points="183,7 177,7 177,14 183,14 "/>
   <polygon class="fil1" points="177,14 164,14 164,20 177,20 "/>
   <polygon class="fil1" points="158,34 164,34 164,20 158,20 "/>
   <path class="fil2" d="M158 40l0 6 -6 0 0 -6 -11 0 0 5 -6 0 0 5 7 0 0 7 -7 0 0 -7 -7 0 0 10 -6 0 0 7 -4 0 0 6 -5 0c-5,8 -18,32 -22,42 -15,-20 -26,-28 -35,-31 -5,-1 -10,4 -2,12 18,20 23,37 29,50 3,7 16,8 18,1 6,-15 14,-32 24,-46l0 -7 5 0 0 -6 5 0 0 -8 7 0 0 -7 -7 0 0 -6 7 0 0 6 6 0 0 -6 5 0 0 -8 6 0 0 -6 5 0 0 -13 -6 0z"/>
   <path class="fil3" d="M51 243l0 0c0,-4 -3,-7 -6,-7 -3,0 -6,3 -6,7l0 0c0,4 3,7 6,7 3,0 6,-3 6,-7zm-17 -10l5 0 0 3c2,-2 4,-4 7,-4 5,0 10,4 10,11l0 0c0,7 -5,11 -10,11 -3,0 -5,-2 -7,-4l0 10 -5 0 0 -27z"/>
   <path class="fil3" d="M77 243l0 0c0,-4 -2,-7 -6,-7 -4,0 -6,3 -6,7l0 0c0,4 2,7 6,7 4,0 6,-3 6,-7zm-17 0l0 0c0,-6 5,-11 11,-11 6,0 11,5 11,11l0 0c0,6 -5,11 -11,11 -6,0 -11,-5 -11,-11z"/>
   <polygon class="fil3" points="85,233 89,233 94,247 98,233 102,233 107,247 111,233 116,233 109,254 105,254 100,239 96,254 91,254 "/>
   <path class="fil3" d="M134 242c0,-4 -2,-6 -5,-6 -3,0 -5,2 -6,6l11 0zm-15 1l0 0c0,-6 4,-11 10,-11 7,0 10,5 10,11 0,1 0,1 0,2l-16 0c1,3 3,5 6,5 3,0 4,-1 6,-2l3 2c-2,2 -5,4 -9,4 -6,0 -10,-4 -10,-11z"/>
   <path class="fil3" d="M144 233l5 0 0 4c1,-3 3,-5 7,-5l0 5 0 0c-4,0 -7,3 -7,9l0 8 -5 0 0 -21z"/>
   <path class="fil3" d="M174 242c0,-4 -2,-6 -5,-6 -3,0 -5,2 -5,6l10 0zm-15 1l0 0c0,-6 4,-11 10,-11 7,0 10,5 10,11 0,1 0,1 0,2l-15 0c0,3 3,5 6,5 2,0 4,-1 5,-2l3 2c-2,2 -4,4 -8,4 -6,0 -11,-4 -11,-11z"/>
   <path class="fil3" d="M200 243l0 0c0,-4 -3,-7 -6,-7 -3,0 -6,3 -6,7l0 0c0,4 3,7 6,7 3,0 6,-3 6,-7zm-17 0l0 0c0,-7 5,-11 10,-11 3,0 5,2 7,4l0 -11 5 0 0 29 -5 0 0 -4c-2,2 -4,4 -7,4 -5,0 -10,-4 -10,-11z"/>
   <path class="fil3" d="M239 243l0 0c0,-4 -2,-7 -6,-7 -3,0 -6,3 -6,7l0 0c0,4 3,7 6,7 4,0 6,-3 6,-7zm-12 7l0 4 -4 0 0 -29 4 0 0 11c2,-2 4,-4 8,-4 4,0 9,4 9,11l0 0c0,7 -4,11 -9,11 -4,0 -6,-2 -8,-4z"/>
   <path class="fil3" d="M248 259l1 -4c1,1 2,1 3,1 1,0 2,-1 3,-2l-9 -21 5 0 6 15 6 -15 5 0 -9 21c-1,4 -3,6 -6,6 -3,0 -4,0 -5,-1z"/>
   <polygon class="fil2" points="282,226 287,226 296,247 304,226 309,226 298,254 293,254 "/>
   <path class="fil2" d="M326 242c0,-4 -2,-6 -5,-6 -3,0 -5,2 -6,6l11 0zm-16 1l0 0c0,-6 5,-11 11,-11 6,0 10,5 10,11 0,1 0,1 0,2l-16 0c1,3 3,5 6,5 2,0 4,-1 6,-2l3 2c-2,2 -5,4 -9,4 -6,0 -11,-4 -11,-11z"/>
   <path class="fil2" d="M336 233l4 0 0 4c2,-3 4,-5 8,-5l0 5 0 0c-5,0 -8,3 -8,9l0 8 -4 0 0 -21z"/>
   <path class="fil2" d="M352 233l5 0 0 21 -5 0 0 -21zm0 -8l5 0 0 4 -5 0 0 -4z"/>
   <path class="fil2" d="M362 249l3 -3c2,2 5,4 8,4 3,0 5,-2 5,-4l0 0c0,-2 -1,-3 -6,-4 -6,-2 -9,-3 -9,-9l0 0c0,-4 4,-8 9,-8 4,0 8,2 10,4l-2 4c-3,-2 -5,-3 -8,-3 -3,0 -4,1 -4,3l0 0c0,2 1,3 6,4 6,2 9,4 9,9l0 0c0,5 -4,8 -10,8 -4,0 -8,-2 -11,-5z"/>
   <path class="fil2" d="M389 233l5 0 0 21 -5 0 0 -21zm0 -8l5 0 0 4 -5 0 0 -4z"/>
   <path class="fil2" d="M415 242l0 0c0,-3 -2,-6 -6,-6 -3,0 -6,2 -6,6l0 0c0,3 3,6 6,6 4,0 6,-3 6,-6zm-15 15l1 -3c3,1 5,2 8,2 4,0 6,-2 6,-6l0 -2c-1,2 -4,4 -7,4 -5,0 -9,-4 -9,-10l0 0c0,-6 4,-10 9,-10 4,0 6,2 7,4l0 -3 5 0 0 16c0,4 -1,6 -2,8 -2,2 -5,3 -9,3 -4,0 -7,-1 -9,-3z"/>
   <path class="fil2" d="M426 233l5 0 0 3c2,-2 3,-4 7,-4 4,0 7,3 7,8l0 14 -5 0 0 -12c0,-4 -1,-5 -4,-5 -3,0 -5,1 -5,5l0 12 -5 0 0 -21z"/>
  </g>
 </g>
</svg>
