<?xml version="1.0" encoding="UTF-8"?>
<!DOCTYPE svg PUBLIC "-//W3C//DTD SVG 1.1//EN" "http://www.w3.org/Graphics/SVG/1.1/DTD/svg11.dtd">
<!-- Creator: CorelDRAW X8 -->
<svg xmlns="http://www.w3.org/2000/svg" xml:space="preserve" width="400px" height="400px" version="1.1" style="shape-rendering:geometricPrecision; text-rendering:geometricPrecision; image-rendering:optimizeQuality; fill-rule:evenodd; clip-rule:evenodd"
viewBox="0 0 400 400"
 xmlns:xlink="http://www.w3.org/1999/xlink">
 <defs>
  <style type="text/css">
   <![CDATA[
    .fil0 {fill:#3D3935}
   ]]>
  </style>
 </defs>
 <g id="Слой_x0020_1">
  <metadata id="CorelCorpID_0Corel-Layer"/>
  <path class="fil0" d="M200 0c110,0 200,90 200,200 0,110 -90,200 -200,200 -110,0 -200,-90 -200,-200 0,-110 90,-200 200,-200zm32 123l0 0 4 0 5 0 3 1c2,0 4,1 6,1 2,1 3,2 5,3 2,1 3,2 4,3 2,0 3,1 4,3 1,1 3,1 5,0 2,0 5,-1 7,-2 3,-1 5,-2 8,-3 2,-1 4,-2 4,-2 1,0 1,-1 1,-1l0 0 0 0 1 0 0 0 0 0 0 0 0 0 0 0 0 0 0 0 0 0 0 0 0 0 0 1 0 0 0 0 0 0 0 0c0,1 0,1 0,1 0,0 -1,2 -2,4 -1,1 -2,4 -4,6 -1,2 -3,3 -4,4 -1,1 -2,2 -2,2 -1,1 -1,1 -2,2l-1 0 0 0 0 0 0 0 0 0 0 0 0 1 0 0 0 0 0 0 -1 0 0 0 0 0 0 0 0 0 0 0 0 0 1 0 0 0 5 -1c3,-1 6,-1 9,-2 3,-1 4,-2 5,-2 0,0 0,0 0,0l0 0 1 0 0 0 0 -1 0 0 0 0 1 0 0 0 0 1 0 0 0 0 0 0 -1 0 0 0 0 0 0 0 0 0 0 0 0 0 0 0 0 0 0 0 0 1 0 0c0,0 -1,1 -2,2 -2,2 -2,3 -3,3 0,0 0,1 0,1 0,0 -1,1 -4,4 -2,2 -4,4 -6,6 -2,1 -3,3 -3,6 0,3 -1,5 -1,9 0,3 0,6 -1,10 -1,4 -2,8 -3,13 -1,4 -3,9 -5,13 -2,5 -4,9 -6,12 -2,4 -4,7 -5,9 -2,3 -4,5 -6,7 -1,2 -4,5 -6,7 -3,3 -4,4 -5,5 0,0 -1,1 -3,3 -2,1 -4,3 -6,4 -3,2 -5,3 -7,4 -1,2 -4,3 -6,4 -3,2 -6,3 -9,4 -3,1 -6,2 -10,3 -3,1 -6,2 -10,3 -3,0 -6,1 -10,1l-6 1 0 0 0 0 -6 0 -6 0 0 0 0 0 -1 0c-1,0 -2,0 -2,0 -1,0 -3,-1 -7,-1 -5,-1 -8,-1 -10,-2 -2,-1 -6,-2 -11,-3 -4,-2 -8,-3 -11,-5 -4,-2 -6,-3 -7,-3 0,-1 -1,-1 -2,-2l-2 -1 0 0 0 0 0 0 0 0 0 0 0 0 0 0 0 0 -1 0 0 0 0 0 0 0 0 0 0 0 0 0 0 -1 0 0 1 0 0 1c1,0 2,0 5,0 2,0 4,0 7,0 2,0 5,-1 8,-1 2,0 6,-1 9,-2 4,-1 7,-2 10,-3 3,-2 5,-3 7,-3 1,-1 3,-2 6,-4l3 -3 1 0 0 0 0 0 0 0 0 0 0 0 0 0 0 0 0 0 0 0 0 0 0 -1 0 0 0 0 -1 0c-1,0 -2,0 -3,0 -1,0 -2,0 -4,-1 -2,0 -3,-1 -6,-2 -2,-1 -4,-2 -6,-3 -2,-1 -3,-2 -4,-3 -1,-1 -2,-2 -3,-4 -2,-1 -3,-3 -4,-4 -1,-2 -2,-4 -3,-6l-1 -3 -1 0 0 0 0 -1 0 0 1 0 0 0 2 1c1,0 3,0 6,0 2,0 4,0 5,-1 1,0 2,0 2,0l0 0 1 0 0 0 0 0 0 0 0 0 0 0 0 0 0 0 -1 -1 0 0 0 0c-1,0 -1,0 -2,0 0,0 -2,-1 -4,-2 -3,-1 -5,-2 -6,-3 -2,-1 -3,-2 -4,-3 -2,-2 -3,-3 -5,-5 -1,-2 -3,-4 -4,-7 -1,-3 -2,-5 -3,-7 0,-3 -1,-5 -1,-7l0 -4 0 0 0 0 0 0 0 0 0 0 1 0 2 2c2,0 4,1 7,2 3,0 4,1 5,1l0 0 1 0 1 0 0 0 0 0 0 0 0 0 0 0 0 -1 0 0 0 0 -1 0 0 0 0 0 0 0 0 0 0 0 0 0 0 0 0 0c0,0 -1,-1 -2,-1 -1,-1 -2,-2 -3,-3 -1,-1 -2,-2 -3,-4 -1,-1 -2,-2 -3,-4 0,-1 -1,-3 -2,-5 -1,-2 -2,-4 -2,-7 -1,-2 -1,-4 -1,-6 0,-2 0,-4 0,-6 0,-1 1,-3 1,-5 1,-2 2,-4 3,-6l1 -3 0 -1 0 0 0 0 0 0 0 0 0 0 0 0 0 0 0 0 1 0 0 0 0 0 0 0 0 0 0 0 0 1 0 0 0 0 2 2c2,2 4,4 6,6 2,2 3,3 3,3 0,0 1,1 1,1 0,0 2,1 3,3 2,2 5,3 8,6 3,2 7,4 11,6 3,2 7,4 12,5 4,2 7,3 9,4 2,0 5,1 9,2 4,0 8,1 10,1 2,0 3,0 4,1l1 0 0 -1 0 0 0 -2c0,-2 0,-4 0,-6 0,-3 0,-5 0,-7 1,-2 1,-5 2,-7 1,-2 2,-4 2,-5 1,-1 2,-3 3,-5 2,-1 3,-3 5,-5 2,-2 5,-3 7,-5 3,-1 5,-2 7,-3 2,-1 4,-1 6,-2 1,0 2,0 2,0z"/>
 </g>
</svg>
