<?xml version="1.0" encoding="UTF-8"?>
<!DOCTYPE svg PUBLIC "-//W3C//DTD SVG 1.1//EN" "http://www.w3.org/Graphics/SVG/1.1/DTD/svg11.dtd">
<!-- Creator: CorelDRAW X8 -->
<svg xmlns="http://www.w3.org/2000/svg" xml:space="preserve" width="300px" height="300px" version="1.1" style="shape-rendering:geometricPrecision; text-rendering:geometricPrecision; image-rendering:optimizeQuality; fill-rule:evenodd; clip-rule:evenodd"
viewBox="0 0 300 300"
 xmlns:xlink="http://www.w3.org/1999/xlink">
 <defs>
  <style type="text/css">
   <![CDATA[
    .fil0 {fill:white}
   ]]>
  </style>
 </defs>
 <g id="Слой_x0020_1">
  <metadata id="CorelCorpID_0Corel-Layer"/>
  <path class="fil0" d="M150 0c83,0 150,67 150,150 0,83 -67,150 -150,150 -83,0 -150,-67 -150,-150 0,-83 67,-150 150,-150zm99 196c0,-1 -1,-1 -1,-1 -3,-7 -10,-14 -20,-23l0 -1 0 0 0 0 0 0c-5,-4 -7,-7 -9,-8 -2,-3 -2,-6 -1,-9 1,-2 4,-6 9,-13 3,-4 5,-7 7,-9 12,-16 17,-26 16,-31l-1 -1c0,0 -1,-1 -3,-2 -2,0 -4,0 -7,0l-30 0c0,0 -1,0 -2,0 -1,1 -1,1 -1,1l-1 0 0 0c-1,1 -1,1 -1,1 -1,1 -1,2 -1,2 -4,9 -7,16 -11,24 -3,4 -5,8 -8,11 -2,3 -4,5 -5,7 -1,1 -3,3 -4,3 -1,1 -2,2 -3,2 0,-1 -1,-1 -1,-1 -1,0 -2,-1 -3,-2 0,-1 -1,-3 -1,-4 0,-2 0,-3 0,-5 0,-1 0,-3 0,-5 0,-2 0,-3 0,-4 0,-3 0,-6 0,-9 0,-3 0,-5 0,-7 0,-2 0,-4 0,-6 0,-2 0,-3 0,-4 0,-2 -1,-3 -1,-4 -1,-1 -1,-2 -2,-2 -1,-1 -2,-1 -4,-2 -3,-1 -8,-1 -14,-1l-1 0 -3 0c-10,0 -17,1 -21,2 -1,1 -2,2 -4,4 -1,1 -1,2 0,2 4,1 7,2 9,5l0 1c1,1 1,2 2,5 0,2 1,4 1,7 0,5 0,10 0,13 -1,4 -1,7 -1,9 -1,2 -1,3 -2,5 0,1 -1,2 -1,2 0,0 0,0 0,0 -1,1 -2,1 -3,1 -1,0 -2,-1 -4,-2 -1,-1 -3,-2 -4,-4 -2,-1 -3,-4 -5,-7 -2,-3 -4,-6 -6,-11l-2 -3c-1,-2 -2,-4 -4,-8 -2,-4 -3,-7 -5,-11 0,-1 -1,-2 -2,-3l-1 0c0,-1 -1,-1 -1,-1 -1,-1 -2,-1 -3,-1l-28 0c-3,0 -5,1 -6,2l-1 1c0,0 0,1 0,1l0 0 0 0c0,1 0,2 1,3 4,10 8,19 13,29 5,9 9,16 13,22 4,5 7,10 11,15 4,5 6,8 7,10 2,1 3,2 3,3l3 2c2,2 4,4 7,6 3,3 7,5 11,7 4,2 8,4 14,6 5,1 10,2 15,1l12 0c2,0 4,-1 5,-2l1 0c0,-1 0,-1 1,-2 0,-1 0,-2 0,-3 0,-3 0,-6 1,-8 0,-3 1,-4 1,-6 1,-1 2,-2 3,-3 0,-1 1,-1 1,-1 1,0 1,0 1,-1 2,0 4,0 6,2 2,2 4,4 6,6 2,2 5,5 8,8 2,3 5,5 7,7l2 1c1,1 3,2 5,2 3,1 5,1 6,1l27 -1c2,0 5,0 6,-1 1,-1 2,-2 3,-3 0,-1 0,-2 0,-3 -1,-2 -1,-2 -1,-3z"/>
 </g>
</svg>
