<?xml version="1.0" encoding="UTF-8"?>
<!DOCTYPE svg PUBLIC "-//W3C//DTD SVG 1.1//EN" "http://www.w3.org/Graphics/SVG/1.1/DTD/svg11.dtd">
<!-- Creator: CorelDRAW X8 -->
<svg xmlns="http://www.w3.org/2000/svg" xml:space="preserve" width="400px" height="400px" version="1.1" style="shape-rendering:geometricPrecision; text-rendering:geometricPrecision; image-rendering:optimizeQuality; fill-rule:evenodd; clip-rule:evenodd"
viewBox="0 0 400 400"
 xmlns:xlink="http://www.w3.org/1999/xlink">
 <defs>
  <style type="text/css">
   <![CDATA[
    .fil0 {fill:#3D3935}
    .fil1 {fill:white;fill-rule:nonzero}
   ]]>
  </style>
 </defs>
 <g id="Слой_x0020_1">
  <metadata id="CorelCorpID_0Corel-Layer"/>
  <g id="_1085843264">
   <path class="fil0" d="M200 0c110,0 200,90 200,200 0,110 -90,200 -200,200 -110,0 -200,-90 -200,-200 0,-110 90,-200 200,-200z"/>
   <path class="fil1" d="M332 261c0,0 -1,-1 -1,-1 -5,-9 -13,-19 -27,-31l0 0 0 -1 0 0 0 0c-6,-5 -10,-9 -11,-11 -3,-4 -4,-7 -2,-11 1,-3 5,-9 12,-18 4,-5 7,-9 9,-12 16,-22 23,-35 21,-41l-1 -1c0,-1 -2,-2 -4,-3 -2,0 -5,-1 -9,0l-40 0c-1,0 -2,0 -3,0 -1,1 -2,1 -2,1l0 0 -1 0c0,1 -1,1 -1,2 -1,1 -1,1 -2,2 -4,11 -9,22 -15,32 -3,5 -6,10 -9,14 -3,5 -5,8 -7,10 -2,2 -4,3 -6,5 -1,1 -2,1 -3,1 -1,0 -2,0 -3,0 -1,-1 -2,-2 -3,-4 0,-1 -1,-3 -1,-5 -1,-2 -1,-4 -1,-6 0,-1 0,-4 0,-7 0,-2 0,-4 0,-5 0,-4 1,-8 1,-12 0,-4 0,-7 0,-10 0,-2 0,-5 0,-7 0,-3 0,-5 0,-7 -1,-1 -1,-3 -2,-4 0,-1 -1,-3 -3,-3 -1,-1 -2,-2 -4,-2 -5,-1 -11,-2 -19,-2l-2 0 -3 0c-15,0 -24,1 -28,3 -2,1 -4,3 -5,4 -2,2 -2,4 -1,4 5,1 9,3 12,6l0 1c1,2 2,4 2,7 1,3 1,6 2,10 0,7 0,12 0,17 -1,5 -1,9 -2,12 0,2 -1,4 -2,6 0,2 -1,3 -1,3 -1,0 -1,1 -1,1 -1,0 -2,1 -4,1 -1,0 -3,-1 -4,-2 -2,-2 -4,-4 -6,-6 -2,-2 -4,-5 -7,-9 -2,-4 -5,-9 -8,-15l-2 -4c-1,-2 -3,-6 -6,-11 -2,-5 -4,-10 -6,-14 -1,-2 -2,-4 -3,-5l-1 0c0,-1 -1,-1 -2,-2 -1,0 -2,0 -3,0l-38 0c-4,0 -7,1 -8,3l-1 0c0,1 0,2 0,3l0 0 0 0c0,1 0,2 1,3 5,13 11,26 18,38 6,12 12,22 17,29 4,8 9,15 14,21 5,7 9,11 10,13 2,2 3,3 4,4l4 3c2,3 5,5 9,8 5,4 9,7 15,10 5,3 11,5 18,7 7,2 14,3 20,2l16 0c3,0 6,-1 8,-3l0 0c0,-1 1,-2 1,-3 0,-1 1,-2 1,-4 -1,-4 0,-7 0,-11 1,-3 2,-5 3,-7 1,-1 2,-3 3,-4 1,-1 2,-2 2,-2 1,0 1,0 1,0 3,-1 5,0 8,2 3,2 6,5 9,8 2,3 5,7 9,11 4,4 7,6 10,8l3 2c1,1 4,2 7,3 3,1 5,1 8,1l35 -1c4,0 6,0 8,-1 2,-2 3,-3 4,-4 0,-2 0,-3 0,-5 0,-2 -1,-3 -1,-4z"/>
  </g>
 </g>
</svg>
