<?xml version="1.0" encoding="UTF-8"?>
<!DOCTYPE svg PUBLIC "-//W3C//DTD SVG 1.1//EN" "http://www.w3.org/Graphics/SVG/1.1/DTD/svg11.dtd">
<!-- Creator: CorelDRAW X8 -->
<svg xmlns="http://www.w3.org/2000/svg" xml:space="preserve" width="120px" height="120px" version="1.1" style="shape-rendering:geometricPrecision; text-rendering:geometricPrecision; image-rendering:optimizeQuality; fill-rule:evenodd; clip-rule:evenodd"
viewBox="0 0 120 120"
 xmlns:xlink="http://www.w3.org/1999/xlink">
 <defs>
  <style type="text/css">
   <![CDATA[
    .fil0 {fill:#3D3935}
    .fil1 {fill:white;fill-rule:nonzero}
   ]]>
  </style>
 </defs>
 <g id="Слой_x0020_1">
  <metadata id="CorelCorpID_0Corel-Layer"/>
  <g id="_797925808">
   <path class="fil0" d="M60 0c33,0 60,27 60,60 0,33 -27,60 -60,60 -33,0 -60,-27 -60,-60 0,-33 27,-60 60,-60z"/>
   <path class="fil1" d="M100 78c-1,0 -1,0 -1,0 -1,-3 -4,-6 -8,-9l0 0 0 0 0 0 0 0c-2,-2 -3,-3 -3,-4 -1,-1 -1,-2 -1,-3 1,-1 2,-3 4,-6 1,-1 2,-2 3,-3 4,-7 7,-11 6,-13l0 0c-1,0 -1,0 -2,-1 0,0 -1,0 -2,0l-12 0c-1,0 -1,0 -1,0 -1,0 -1,0 -1,0l0 1 0 0c0,0 0,0 -1,0 0,0 0,1 0,1 -1,3 -3,6 -4,9 -1,2 -2,3 -3,5 -1,1 -2,2 -2,3 -1,0 -2,1 -2,1 0,0 -1,0 -1,0 0,0 -1,0 -1,0 0,0 0,0 -1,-1 0,0 0,-1 0,-1 0,-1 0,-2 0,-2 0,-1 0,-1 0,-2 0,-1 0,-2 0,-2 0,-1 0,-2 0,-3 0,-1 0,-2 0,-3 0,-1 0,-2 0,-2 0,-1 0,-2 0,-2 0,-1 0,-1 -1,-2 0,0 0,0 0,-1 -1,0 -1,0 -2,0 -1,-1 -3,-1 -6,-1l0 0 -1 0c-4,0 -7,1 -8,1 -1,0 -2,1 -2,1 -1,1 -1,1 0,1 1,1 3,1 3,2l1 1c0,0 0,1 0,2 0,1 0,2 0,3 1,2 1,3 0,5 0,1 0,2 0,3 0,1 0,2 0,2 -1,1 -1,1 -1,1 0,0 0,0 0,0 -1,0 -1,1 -1,1 -1,0 -1,-1 -2,-1 0,0 -1,-1 -1,-2 -1,0 -2,-1 -2,-2 -1,-2 -2,-3 -3,-5l0 -1c-1,-1 -1,-2 -2,-3 -1,-2 -2,-3 -2,-5 0,0 -1,-1 -1,-1l0 0c0,0 -1,0 -1,-1 0,0 -1,0 -1,0l-11 0c-1,0 -2,1 -3,1l0 0c0,0 0,1 0,1l0 0 0 0c0,0 0,1 0,1 2,4 4,8 6,11 2,4 3,7 5,9 1,2 3,5 4,7 2,1 3,3 3,3 1,1 1,1 1,2l1 1c1,0 2,1 3,2 2,1 3,2 5,3 1,1 3,1 5,2 2,0 4,1 6,1l5 0c1,0 2,-1 2,-1l0 -1c0,0 1,0 1,0 0,-1 0,-1 0,-1 0,-2 0,-3 0,-4 0,-1 0,-1 1,-2 0,0 0,-1 1,-1 0,0 0,-1 0,-1 0,0 1,0 1,0 0,0 1,0 2,1 1,0 2,1 3,2 0,1 1,2 2,3 2,2 3,3 3,3l1 1c1,0 1,0 2,1 1,0 2,0 3,0l10 0c1,0 2,-1 3,-1 0,0 1,-1 1,-1 0,0 0,-1 0,-1 0,-1 0,-1 0,-2z"/>
  </g>
 </g>
</svg>
