<?xml version="1.0" encoding="UTF-8"?>
<!DOCTYPE svg PUBLIC "-//W3C//DTD SVG 1.1//EN" "http://www.w3.org/Graphics/SVG/1.1/DTD/svg11.dtd">
<!-- Creator: CorelDRAW X8 -->
<svg xmlns="http://www.w3.org/2000/svg" xml:space="preserve" width="145px" height="190px" version="1.1" style="shape-rendering:geometricPrecision; text-rendering:geometricPrecision; image-rendering:optimizeQuality; fill-rule:evenodd; clip-rule:evenodd"
viewBox="0 0 145 190"
 xmlns:xlink="http://www.w3.org/1999/xlink">
 <defs>
  <style type="text/css">
   <![CDATA[
    .fil0 {fill:#3D3935;fill-rule:nonzero}
    .fil1 {fill:#B3B3B3;fill-rule:nonzero}
    .fil2 {fill:#B3B3B3;fill-rule:nonzero}
   ]]>
  </style>
 </defs>
 <g id="Слой_x0020_1">
  <metadata id="CorelCorpID_0Corel-Layer"/>
  <g id="_987369168">
   <path class="fil0" d="M0 94c0,-10 1,-17 23,-34 19,-13 77,-60 77,-60l0 78 45 0 0 112 -131 0c-7,0 -14,-6 -14,-14l0 -82z"/>
   <polygon class="fil1" points="100,78 100,123 18,179 122,145 122,78 "/>
   <path class="fil2" d="M63 76c5,-6 12,-8 15,-5 4,3 3,11 -1,16 -5,6 -12,8 -16,5 -4,-3 -3,-11 2,-16z"/>
  </g>
 </g>
</svg>
