<?xml version="1.0" encoding="UTF-8"?>
<!DOCTYPE svg PUBLIC "-//W3C//DTD SVG 1.1//EN" "http://www.w3.org/Graphics/SVG/1.1/DTD/svg11.dtd">
<!-- Creator: CorelDRAW X8 -->
<svg xmlns="http://www.w3.org/2000/svg" xml:space="preserve" width="730px" height="287px" version="1.1" style="shape-rendering:geometricPrecision; text-rendering:geometricPrecision; image-rendering:optimizeQuality; fill-rule:evenodd; clip-rule:evenodd"
viewBox="0 0 730 287"
 xmlns:xlink="http://www.w3.org/1999/xlink">
 <defs>
  <style type="text/css">
   <![CDATA[
    .fil0 {fill:#3D3935}
   ]]>
  </style>
 </defs>
 <g id="Слой_x0020_1">
  <metadata id="CorelCorpID_0Corel-Layer"/>
  <g id="_793866688">
   <path class="fil0" d="M411 284c45,0 90,-25 90,-80 0,-39 -18,-59 -43,-71 -5,-3 -12,-4 -12,-4l0 -2c2,0 6,-1 10,-4 15,-9 29,-24 29,-51 0,-53 -38,-69 -80,-69l-91 0 0 281 97 0zm-42 -40l0 -89 38 0c31,0 39,24 39,48 0,22 -13,41 -39,41l-38 0zm0 -127l0 -74 31 0c17,0 32,9 32,34 0,20 -8,40 -32,40l-31 0z"/>
   <path class="fil0" d="M724 20c-16,-7 -41,-17 -81,-17 -84,0 -120,53 -120,140 0,88 35,141 112,141 41,0 81,-15 95,-24l0 -124 -109 0 5 40 51 0 0 62c-10,3 -20,7 -38,7 -52,0 -61,-48 -61,-102 0,-53 12,-100 65,-100 26,0 50,8 64,15l17 -38z"/>
   <path class="fil0" d="M0 143c0,80 64,144 143,144 79,0 144,-64 144,-144 0,-79 -65,-143 -144,-143 -79,0 -143,64 -143,143zm111 55c-16,-14 -34,-33 -39,-52 -9,-36 30,-67 62,-39 -16,3 -28,13 -28,30 0,24 15,32 27,36l1 0 0 35c-6,-1 -11,-3 -16,-6l-7 -4zm29 -23c3,1 5,1 6,2l0 31c-1,0 -2,0 -4,0 -1,0 -1,0 -2,0l0 -33zm12 5c5,3 6,7 6,13 0,6 -2,10 -6,13l0 -26zm1 -73c32,-27 70,3 61,39 -4,17 -19,34 -34,47 0,0 0,0 0,0 0,-23 -13,-31 -28,-36l0 -33c4,0 9,2 12,4l7 3 8 -15c-10,-5 -17,-8 -26,-9zm-7 48c-2,-1 -4,-1 -6,-2l0 -30c2,0 3,0 5,0 0,0 1,0 1,0l0 32zm-12 -5c-5,-3 -7,-7 -7,-13 0,-6 3,-10 7,-12l0 25zm9 -141l1 0c1,0 2,1 2,2l0 17c0,1 -1,2 -2,2l-1 0c-2,0 -3,-1 -3,-2l0 -17c0,-1 1,-2 3,-2zm0 247l1 0c1,0 2,1 2,2l0 18c0,1 -1,2 -2,2l-1 0c-2,0 -3,-1 -3,-2l0 -18c0,-1 1,-2 3,-2zm113 -112l0 -1c0,-1 1,-2 2,-2l17 0c1,0 2,1 2,2l0 1c0,1 -1,2 -2,2l-17 0c-1,0 -2,-1 -2,-2zm-247 0l0 -1c0,-1 1,-2 3,-2l17 0c1,0 2,1 2,2l0 1c0,1 -1,2 -2,2l-17 0c-2,0 -3,-1 -3,-2zm134 103c57,0 104,-46 104,-103 0,-58 -47,-104 -104,-104 -57,0 -103,46 -103,104 0,57 46,103 103,103z"/>
  </g>
 </g>
</svg>
