<?xml version="1.0" encoding="UTF-8"?>
<!DOCTYPE svg PUBLIC "-//W3C//DTD SVG 1.1//EN" "http://www.w3.org/Graphics/SVG/1.1/DTD/svg11.dtd">
<!-- Creator: CorelDRAW X8 -->
<svg xmlns="http://www.w3.org/2000/svg" xml:space="preserve" width="110px" height="110px" version="1.1" style="shape-rendering:geometricPrecision; text-rendering:geometricPrecision; image-rendering:optimizeQuality; fill-rule:evenodd; clip-rule:evenodd"
viewBox="0 0 110 110"
 xmlns:xlink="http://www.w3.org/1999/xlink">
 <defs>
  <style type="text/css">
   <![CDATA[
    .fil0 {fill:#3D3935}
   ]]>
  </style>
 </defs>
 <g id="Слой_x0020_1">
  <metadata id="CorelCorpID_0Corel-Layer"/>
  <path class="fil0" d="M65 65c-13,13 -35,13 -48,0 -13,-13 -13,-35 0,-48 13,-13 35,-13 48,0 13,13 13,35 0,48zm5 -53c-16,-16 -42,-16 -58,0 -16,16 -16,42 0,58 13,13 34,15 49,6l31 31c4,4 11,4 15,0 4,-4 4,-11 0,-15l-31 -31c9,-15 7,-36 -6,-49z"/>
 </g>
</svg>
