<?xml version="1.0" encoding="UTF-8"?>
<!DOCTYPE svg PUBLIC "-//W3C//DTD SVG 1.1//EN" "http://www.w3.org/Graphics/SVG/1.1/DTD/svg11.dtd">
<!-- Creator: CorelDRAW X8 -->
<svg xmlns="http://www.w3.org/2000/svg" xml:space="preserve" width="2110px" height="200px" version="1.1" style="shape-rendering:geometricPrecision; text-rendering:geometricPrecision; image-rendering:optimizeQuality; fill-rule:evenodd; clip-rule:evenodd"
viewBox="0 0 2110 200"
 xmlns:xlink="http://www.w3.org/1999/xlink">
 <defs>
  <style type="text/css">
   <![CDATA[
    .fil0 {fill:#3D3935}
   ]]>
  </style>
 </defs>
 <g id="Слой_x0020_1">
  <metadata id="CorelCorpID_0Corel-Layer"/>
  <path class="fil0" d="M51 197c24,0 45,-13 45,-43 0,-30 -11,-38 -30,-42 0,-1 0,-1 0,-1 11,-3 24,-13 24,-31 0,-30 -19,-39 -41,-39l-49 0 0 156 51 0zm-31 -14l0 -61 27 0c26,0 28,16 28,32 0,17 -8,29 -28,29l-27 0zm0 -75l0 -52 25 0c16,0 25,5 25,24 0,14 -9,28 -28,28l-22 0zm168 89l20 0 0 -61 26 0c31,0 48,-19 48,-47 0,-36 -17,-48 -48,-48l-46 0 0 156zm43 -141c25,0 29,14 29,33 0,19 -5,33 -29,33l-23 0 0 -66 23 0zm161 141l20 0 -48 -156 -21 0 -48 156 20 0 13 -47 50 0 14 47zm-41 -124l2 -18 1 0 2 18 18 62 -41 0 18 -62zm153 -43c25,0 35,-20 35,-23l-12 -7c0,1 -6,15 -23,15 -17,0 -24,-14 -24,-15l-11 7c0,3 8,23 35,23zm-34 129l-6 16 -1 0 2 -16 0 -118 -20 0 0 156 21 0 71 -117 7 -16 1 0 -2 16 0 117 19 0 0 -156 -18 0 -74 118zm281 38l20 0 0 -156 -20 0 0 68 -68 0 0 -68 -20 0 0 156 20 0 0 -72 68 0 0 72zm150 0l20 0 -48 -156 -21 0 -48 156 20 0 14 -47 50 0 13 47zm-41 -124l2 -18 1 0 3 18 17 62 -41 0 18 -62zm1205 5c-37,0 -52,26 -52,62 0,38 16,60 52,60 20,0 35,-4 43,-9l-5 -14c-8,5 -22,10 -38,10 -15,0 -32,-10 -32,-41l0 -5 77 0c0,-44 -9,-63 -45,-63zm27 51l-59 0c0,-20 9,-39 32,-39 22,0 27,15 27,39zm-996 -79c-16,-8 -28,-12 -46,-12 -29,0 -54,13 -54,41 0,33 21,44 38,50l9 2c21,7 25,12 25,26 0,14 -8,20 -22,20 -12,0 -23,-3 -32,-8l-12 -5 -11 20c11,7 30,16 55,16 32,0 53,-12 53,-44 0,-34 -21,-44 -44,-51 -21,-7 -29,-11 -29,-26 0,-13 9,-19 24,-19 10,0 19,2 27,6l9 5 10 -21zm59 94l62 0 0 -24 -62 0 0 24zm222 -96c-6,-3 -20,-11 -39,-11 -46,0 -65,31 -65,81 0,51 19,82 65,82 17,0 33,-8 40,-12l-9 -22c-3,2 -6,4 -9,6 -6,3 -15,5 -22,5 -26,0 -34,-28 -34,-59 0,-30 6,-58 34,-58 12,0 24,5 31,9l8 -21zm137 126l-67 0 0 -134 -31 0 0 157 95 0 3 -23zm111 23l31 0 -48 -157 -37 0 -47 157 31 0 12 -42 45 0 13 42zm-19 -65l-33 0 14 -58 2 -14 1 0 2 14 14 58zm172 -82c-16,-8 -28,-12 -46,-12 -29,0 -54,13 -54,41 0,33 20,44 38,50l8 2c21,7 26,12 26,26 0,14 -9,20 -22,20 -12,0 -24,-3 -33,-8l-11 -5 -11 20c11,7 29,16 55,16 31,0 53,-12 53,-44 0,-34 -22,-44 -45,-51 -20,-7 -28,-11 -28,-26 0,-13 8,-19 24,-19 9,0 18,2 26,6l9 5 11 -21zm133 0c-17,-8 -29,-12 -47,-12 -28,0 -53,13 -53,41 0,33 20,44 37,50l9 2c21,7 25,12 25,26 0,14 -8,20 -22,20 -12,0 -23,-3 -32,-8l-12 -5 -11 20c12,7 30,16 55,16 32,0 53,-12 53,-44 0,-34 -21,-44 -44,-51 -21,-7 -29,-11 -29,-26 0,-13 9,-19 24,-19 10,0 19,2 27,6l9 5 11 -21zm67 4c-1,-8 -3,-15 -15,-15 -12,0 -15,7 -15,15 0,8 3,14 15,13 -2,11 -7,24 -10,29l6 3c6,-5 19,-29 19,-44l0 -1z"/>
 </g>
</svg>
