<?xml version="1.0" encoding="utf-8"?>
<!-- Generator: Adobe Illustrator 19.1.0, SVG Export Plug-In . SVG Version: 6.00 Build 0)  -->
<svg version="1.1" id="Layer_1" xmlns="http://www.w3.org/2000/svg" xmlns:xlink="http://www.w3.org/1999/xlink" x="0px" y="0px"
	 viewBox="0 0 163.7 220.4" style="enable-background:new 0 0 163.7 220.4;" xml:space="preserve">
<style type="text/css">
	.st0{fill:#FFFFFF;stroke:#231F20;stroke-width:6;stroke-linecap:round;stroke-linejoin:round;stroke-miterlimit:10;}
	.st1{fill:none;stroke:#231F20;stroke-width:6;stroke-linecap:round;stroke-linejoin:round;stroke-miterlimit:10;}
	.st2{fill:#333333;}
	.st3{fill:#FFFFFF;}
</style>
<path class="st0" d="M-198.2,691.4V834c0,0-36.8,44.8-64.3,39.2l22-76.5v-79.3L-198.2,691.4z"/>
<polygon class="st0" points="-343,697.6 -317.2,665.5 -225.2,681.5 -240.4,717.3 "/>
<path class="st0" d="M-261.8,873.7l-65.9-11.4c-12.7-5.2-15.3-12.5-15.3-28.1V697.6l102.6,19.7v136.1c0,8.3-1.7,13.9-8,17.8
	C-252.4,873.7-257.2,874.5-261.8,873.7z"/>
<polygon class="st0" points="-317.2,665.5 -317.2,651.7 -225.2,666.6 -225.2,681.5 "/>
<polygon class="st0" points="-240.4,717.3 -198.2,691.4 -225.2,681.5 "/>
<line class="st1" x1="-240.4" y1="720.7" x2="-198.2" y2="735.5"/>
<line class="st1" x1="-225.2" y1="709.9" x2="-198.2" y2="719.4"/>
<line class="st1" x1="-240.4" y1="737.6" x2="-198.2" y2="752.4"/>
<line class="st1" x1="-240.4" y1="754.4" x2="-198.2" y2="769.2"/>
<line class="st1" x1="-240.4" y1="771" x2="-198.2" y2="785.7"/>
<line class="st1" x1="-240.4" y1="787.9" x2="-198.2" y2="802.7"/>
<line class="st1" x1="-240.4" y1="804.7" x2="-198.2" y2="819.5"/>
<line class="st1" x1="-240.4" y1="819.5" x2="-198.2" y2="834.3"/>
<line class="st1" x1="-240.4" y1="836.4" x2="-210.3" y2="847"/>
<line class="st1" x1="-240.4" y1="853.2" x2="-224.1" y2="858.9"/>
<g>
	<ellipse class="st2" cx="-324.9" cy="783.5" rx="8.6" ry="11.3"/>
	<ellipse class="st2" cx="-259.4" cy="791.7" rx="8.6" ry="11.3"/>
	<path class="st2" d="M-308,816.2l30.9,5c0,0-1,7.8-5.3,14.6c-5.4,8.4-17.9,7.6-22.4-1.4C-307,829.9-308.6,823.9-308,816.2z"/>
	<ellipse class="st3" cx="-320.6" cy="779.6" rx="4.3" ry="5.7"/>
	<ellipse class="st3" cx="-255.1" cy="788.1" rx="4.3" ry="5.7"/>
</g>
<g>
	<g>
		<path class="st3" d="M148.5,47.4v128.8c0,0-33.2,40.5-58,35.4l19.9-69.1V70.8L148.5,47.4z"/>
		<path class="st2" d="M95,214.6c-1.7,0-3.4-0.2-5-0.5c-0.7-0.2-1.4-0.6-1.8-1.3c-0.4-0.6-0.5-1.4-0.3-2.2l19.8-68.8V70.8
			c0-0.9,0.5-1.8,1.3-2.3L147.1,45c0.8-0.5,1.9-0.5,2.7-0.1c0.9,0.5,1.4,1.4,1.4,2.4v128.8c0,0.6-0.2,1.2-0.6,1.7
			C149.3,179.4,120.1,214.6,95,214.6z M94,209.2c11.1,0.5,24-8,33.1-15.6c9.3-7.8,16.6-16,18.7-18.5V52.2l-32.7,20.1v70.1
			c0,0.3,0,0.5-0.1,0.7L94,209.2z"/>
	</g>
	<g>
		<polygon class="st3" points="17.8,53 41,23.9 124.2,38.5 110.4,70.8 		"/>
		<path class="st2" d="M110.4,73.5c-0.2,0-0.3,0-0.5,0L17.3,55.6c-0.9-0.2-1.7-0.8-2-1.7c-0.3-0.9-0.2-1.9,0.4-2.6l23.3-29
			c0.6-0.8,1.6-1.1,2.6-1l83.2,14.5c0.8,0.1,1.5,0.6,1.9,1.4c0.4,0.7,0.4,1.6,0.1,2.4l-13.8,32.3C112.5,72.9,111.5,73.5,110.4,73.5z
			 M22.7,51.2l86.1,16.6l11.6-27.2L42.2,26.9L22.7,51.2z"/>
	</g>
	<g>
		<path class="st3" d="M91.1,212l-59.5-10.3c-11.5-4.7-13.8-11.3-13.8-25.4V53l92.6,17.8v122.9c0,7.5-1.5,12.5-7.2,16.1
			C99.6,212,95.3,212.7,91.1,212z"/>
		<path class="st2" d="M94.3,215c-1.2,0-2.4-0.1-3.6-0.3l-59.5-10.3c-0.2,0-0.4-0.1-0.6-0.2c-13.1-5.3-15.5-13.6-15.5-27.9V53
			c0-0.8,0.4-1.6,1-2.1c0.6-0.5,1.4-0.7,2.2-0.6l92.6,17.8c1.3,0.2,2.2,1.4,2.2,2.7v122.9c0,6.8-1,13.7-8.5,18.4
			C101.5,214,98,215,94.3,215z M32.3,199.1l59.2,10.3l0,0c3.6,0.6,7.2,0,10.2-1.8c4.4-2.7,6-6.5,6-13.8V73L20.5,56.2v120.1
			C20.5,190.5,22.9,195.2,32.3,199.1z"/>
	</g>
	<g>
		<polygon class="st3" points="41,23.9 41,11.5 124.2,25 124.2,38.5 		"/>
		<path class="st2" d="M124.2,41.2c-0.2,0-0.3,0-0.5,0L40.6,26.6c-1.3-0.2-2.2-1.4-2.2-2.7V11.5c0-0.8,0.3-1.5,1-2.1
			c0.6-0.5,1.4-0.7,2.2-0.6l83.2,13.5c1.3,0.2,2.3,1.3,2.3,2.7v13.5c0,0.8-0.4,1.6-1,2.1C125.4,40.9,124.8,41.2,124.2,41.2z
			 M43.7,21.7l77.7,13.6v-8L43.7,14.6V21.7z"/>
	</g>
	<g>
		<polygon class="st3" points="110.4,70.8 148.5,47.4 124.2,38.5 		"/>
		<path class="st2" d="M110.4,73.5c-0.6,0-1.3-0.2-1.8-0.7c-0.9-0.8-1.2-2-0.7-3.1l13.8-32.3c0.6-1.3,2.1-2,3.4-1.5l24.4,8.9
			c1,0.4,1.7,1.2,1.8,2.3c0.1,1-0.4,2-1.3,2.6l-38.1,23.4C111.4,73.4,110.9,73.5,110.4,73.5z M125.7,41.9L116.2,64l26.1-16
			L125.7,41.9z"/>
	</g>
	<path class="st2" d="M148.5,89.8c-0.3,0-0.6,0-0.9-0.2l-38.1-13.4c-1.4-0.5-2.2-2-1.7-3.5c0.5-1.4,2-2.2,3.5-1.7l38.1,13.4
		c1.4,0.5,2.2,2,1.7,3.5C150.7,89.1,149.7,89.8,148.5,89.8z"/>
	<path class="st2" d="M148.5,75.4c-0.3,0-0.6,0-0.9-0.2l-24.4-8.6c-1.4-0.5-2.2-2-1.7-3.5c0.5-1.4,2-2.2,3.5-1.7l24.4,8.6
		c1.4,0.5,2.2,2,1.7,3.5C150.7,74.7,149.7,75.4,148.5,75.4z"/>
	<path class="st2" d="M148.5,105.1c-0.3,0-0.6,0-0.9-0.2l-38.1-13.4c-1.4-0.5-2.2-2-1.7-3.5c0.5-1.4,2-2.2,3.5-1.7l38.1,13.4
		c1.4,0.5,2.2,2,1.7,3.5C150.7,104.4,149.7,105.1,148.5,105.1z"/>
	<path class="st2" d="M148.5,120.3c-0.3,0-0.6,0-0.9-0.2l-38.1-13.4c-1.4-0.5-2.2-2-1.7-3.5c0.5-1.4,2-2.2,3.5-1.7l38.1,13.4
		c1.4,0.5,2.2,2,1.7,3.5C150.7,119.6,149.7,120.3,148.5,120.3z"/>
	<path class="st2" d="M148.5,135.3c-0.3,0-0.6,0-0.9-0.2l-38.1-13.4c-1.4-0.5-2.2-2-1.7-3.5c0.5-1.4,2-2.2,3.5-1.7l38.1,13.4
		c1.4,0.5,2.2,2,1.7,3.5C150.7,134.6,149.7,135.3,148.5,135.3z"/>
	<path class="st2" d="M148.5,150.6c-0.3,0-0.6,0-0.9-0.2l-38.1-13.4c-1.4-0.5-2.2-2-1.7-3.5c0.5-1.4,2-2.2,3.5-1.7l38.1,13.4
		c1.4,0.5,2.2,2,1.7,3.5C150.7,149.9,149.7,150.6,148.5,150.6z"/>
	<path class="st2" d="M148.5,165.7c-0.3,0-0.6,0-0.9-0.2l-38.1-13.4c-1.4-0.5-2.2-2-1.7-3.5c0.5-1.4,2-2.2,3.5-1.7l38.1,13.4
		c1.4,0.5,2.2,2,1.7,3.5C150.7,165,149.7,165.7,148.5,165.7z"/>
	<path class="st2" d="M147.5,179.1c-0.3,0-0.6,0-0.9-0.2l-37.2-13.4c-1.4-0.5-2.1-2-1.6-3.5c0.5-1.4,2-2.2,3.4-1.7l37.2,13.4
		c1.4,0.5,2.1,2,1.6,3.5C149.6,178.4,148.6,179.1,147.5,179.1z"/>
	<path class="st2" d="M137.6,190.5c-0.3,0-0.6,0-0.9-0.2l-27.2-9.5c-1.4-0.5-2.2-2-1.7-3.5s2-2.2,3.5-1.7l27.2,9.5
		c1.4,0.5,2.2,2,1.7,3.5C139.7,189.8,138.7,190.5,137.6,190.5z"/>
	<path class="st2" d="M125.2,201.4c-0.3,0-0.6,0-0.9-0.2l-14.8-5.2c-1.4-0.5-2.2-2-1.7-3.5c0.5-1.4,2-2.2,3.5-1.7l14.8,5.2
		c1.4,0.5,2.2,2,1.7,3.5C127.3,200.7,126.3,201.4,125.2,201.4z"/>
	<g>
		<ellipse class="st2" cx="37.7" cy="128.1" rx="9.7" ry="12.8"/>
		<ellipse class="st2" cx="85.4" cy="137.3" rx="9.7" ry="12.8"/>
		<path class="st2" d="M49.3,156.7l22.2,3.6c0,0-0.7,5.6-3.8,10.5c-3.9,6-12.9,5.4-16-1C50.1,166.5,48.9,162.2,49.3,156.7z"/>
		<ellipse class="st3" cx="42.3" cy="123.9" rx="4.5" ry="6"/>
		<ellipse class="st3" cx="89.5" cy="132.4" rx="4.5" ry="6"/>
	</g>
</g>
</svg>
